<svg width="130" height="130" xmlns="http://www.w3.org/2000/svg">

 <g>
  <title>background</title>
  <rect fill="none" id="canvas_background" height="402" width="582" y="-1" x="-1"/>
 </g>
 <g>
  <title>Layer 1</title>
  <path id="svg_1" stroke-width="2" stroke-miterlimit="10" stroke="#3262F9" fill="#0083ff" d="m105.021,55.983l0,-30.346l-29.072,0c-0.187,-7.477 -6.633,-13.487 -14.568,-13.487c-7.937,0 -14.382,6.01 -14.569,13.486l-29.072,0l0,30.347c8.058,0 14.587,6.183 14.587,13.814c0,7.631 -6.529,13.818 -14.587,13.818l0,30.342l29.058,0c0,-7.626 6.529,-13.813 14.583,-13.813c8.053,0 14.583,6.188 14.583,13.813l29.058,0l0,-30.341c8.053,0 14.583,-6.188 14.583,-13.818c-0.001,-7.632 -6.531,-13.815 -14.584,-13.815z"/>
 </g>
</svg>