<svg width="64" height="64" xmlns="http://www.w3.org/2000/svg">

 <g>
  <title>background</title>
  <rect fill="none" id="canvas_background" height="66" width="66" y="-1" x="-1"/>
 </g>
 <g>
  <title>Layer 1</title>
  <circle id="svg_2" r="32" fill="none" cy="32" cx="32"/>
  <path opacity="0.2" id="svg_5" fill="#231F20" d="m54.083,21.25c-0.882,-1.528 -2.937,-3.35 -7.717,-3.35c-1.643,0 -3.471,0.225 -5.414,0.646c-1.986,-6.182 -5.195,-10.046 -8.952,-10.046s-6.966,3.864 -8.953,10.047c-1.943,-0.421 -3.771,-0.646 -5.414,-0.646c-4.78,0 -6.835,1.821 -7.717,3.35c-1.875,3.247 -0.141,7.947 4.201,12.749c-4.343,4.802 -6.076,9.502 -4.201,12.75c0.882,1.528 2.937,3.35 7.717,3.35c1.643,0 3.471,-0.225 5.414,-0.646c1.987,6.182 5.196,10.046 8.953,10.046s6.966,-3.864 8.953,-10.047c1.943,0.421 3.771,0.646 5.414,0.646c4.78,0 6.835,-1.821 7.717,-3.35c1.875,-3.248 0.142,-7.948 -4.201,-12.75c4.342,-4.801 6.076,-9.501 4.2,-12.749zm-7.716,-0.35c2.612,0 4.43,0.656 5.119,1.85c1.072,1.857 -0.297,5.281 -3.722,9.097c-1.463,-1.378 -3.129,-2.747 -4.973,-4.077c-0.229,-2.253 -0.58,-4.373 -1.039,-6.322c1.657,-0.347 3.22,-0.548 4.615,-0.548zm-10.317,20.115c-1.345,0.777 -2.7,1.471 -4.05,2.114c-1.35,-0.643 -2.705,-1.337 -4.05,-2.114c-1.374,-0.793 -2.662,-1.612 -3.872,-2.442c-0.114,-1.462 -0.178,-2.987 -0.178,-4.573s0.065,-3.111 0.179,-4.573c1.209,-0.83 2.498,-1.648 3.872,-2.442c1.345,-0.777 2.7,-1.471 4.05,-2.114c1.35,0.643 2.705,1.337 4.05,2.114c1.374,0.793 2.662,1.612 3.872,2.442c0.113,1.462 0.177,2.987 0.177,4.573s-0.065,3.111 -0.179,4.573c-1.209,0.83 -2.497,1.648 -3.871,2.442zm3.418,1.442c-0.181,1.174 -0.397,2.287 -0.644,3.339c-1.057,-0.318 -2.133,-0.677 -3.235,-1.104c0.656,-0.347 1.31,-0.704 1.96,-1.079c0.657,-0.379 1.294,-0.766 1.919,-1.156zm-11.057,2.234c-1.102,0.427 -2.178,0.786 -3.235,1.104c-0.247,-1.052 -0.463,-2.165 -0.644,-3.339c0.625,0.39 1.263,0.777 1.919,1.155c0.65,0.377 1.304,0.733 1.96,1.08zm-7.47,-8.452c-0.931,-0.748 -1.79,-1.496 -2.581,-2.239c0.791,-0.743 1.65,-1.491 2.581,-2.239c-0.025,0.737 -0.041,1.482 -0.041,2.239s0.016,1.502 0.041,2.239zm3.591,-10.696c0.181,-1.174 0.397,-2.287 0.644,-3.339c1.057,0.318 2.133,0.677 3.235,1.104c-0.656,0.347 -1.31,0.704 -1.96,1.079c-0.657,0.379 -1.294,0.766 -1.919,1.156zm11.057,-2.234c1.102,-0.427 2.178,-0.786 3.235,-1.104c0.247,1.052 0.463,2.165 0.644,3.339c-0.625,-0.39 -1.263,-0.777 -1.919,-1.155c-0.65,-0.377 -1.304,-0.733 -1.96,-1.08zm7.47,8.452c0.931,0.748 1.791,1.495 2.581,2.239c-0.791,0.743 -1.65,1.491 -2.581,2.239c0.025,-0.737 0.041,-1.482 0.041,-2.239s-0.016,-1.502 -0.041,-2.239zm-11.059,-20.261c2.149,0 4.436,2.91 6.03,7.805c-1.953,0.585 -3.981,1.342 -6.03,2.254c-2.048,-0.912 -4.077,-1.669 -6.03,-2.254c1.594,-4.895 3.881,-7.805 6.03,-7.805zm-19.486,11.25c0.689,-1.193 2.507,-1.85 5.119,-1.85c1.395,0 2.958,0.201 4.614,0.548c-0.459,1.95 -0.81,4.069 -1.039,6.322c-1.845,1.33 -3.51,2.699 -4.973,4.077c-3.424,-3.816 -4.793,-7.24 -3.721,-9.097zm5.119,24.35c-2.612,0 -4.43,-0.656 -5.119,-1.85c-1.072,-1.857 0.297,-5.281 3.722,-9.097c1.463,1.378 3.129,2.747 4.973,4.077c0.229,2.253 0.58,4.373 1.039,6.322c-1.657,0.347 -3.22,0.548 -4.615,0.548zm14.367,9.4c-2.149,0 -4.436,-2.91 -6.03,-7.805c1.953,-0.585 3.981,-1.342 6.03,-2.254c2.048,0.912 4.077,1.669 6.03,2.254c-1.594,4.895 -3.881,7.805 -6.03,7.805zm19.486,-11.25c-0.689,1.193 -2.507,1.85 -5.119,1.85c-1.395,0 -2.958,-0.201 -4.614,-0.548c0.459,-1.95 0.81,-4.069 1.039,-6.322c1.845,-1.33 3.51,-2.699 4.973,-4.077c3.424,3.816 4.793,7.24 3.721,9.097z"/>
  <circle opacity="0.2" id="svg_7" r="3" fill="#231F20" cy="34" cx="32"/>
  <path id="svg_9" fill="#00ffff" d="m32,57.5c-6.328,0 -11.1,-10.963 -11.1,-25.5s4.772,-25.5 11.1,-25.5s11.1,10.963 11.1,25.5s-4.772,25.5 -11.1,25.5zm0,-48c-3.831,0 -8.1,9.24 -8.1,22.5s4.269,22.5 8.1,22.5s8.1,-9.24 8.1,-22.5s-4.269,-22.5 -8.1,-22.5z"/>
  <path id="svg_11" fill="#FFFFFF" d="m17.633,48.1c-4.78,0 -6.835,-1.821 -7.717,-3.35c-3.164,-5.48 3.944,-15.095 16.534,-22.362c7.036,-4.062 14.481,-6.487 19.917,-6.487c4.78,0 6.835,1.821 7.717,3.35c3.164,5.48 -3.944,15.095 -16.534,22.362c-7.036,4.062 -14.481,6.487 -19.917,6.487zm28.734,-29.2c-4.932,0 -11.817,2.274 -18.417,6.085c-11.483,6.63 -17.352,14.946 -15.436,18.265c0.689,1.193 2.507,1.85 5.119,1.85c4.932,0 11.817,-2.274 18.417,-6.085c11.483,-6.63 17.352,-14.946 15.436,-18.265c-0.689,-1.193 -2.507,-1.85 -5.119,-1.85z"/>
  <path id="svg_13" fill="#00ffff" d="m17.633,48.1c-4.78,0 -6.835,-1.821 -7.717,-3.35c-3.164,-5.48 3.944,-15.095 16.534,-22.362c7.036,-4.062 14.481,-6.487 19.917,-6.487c4.78,0 6.835,1.821 7.717,3.35c3.164,5.48 -3.944,15.095 -16.534,22.362c-7.036,4.062 -14.481,6.487 -19.917,6.487zm28.734,-29.2c-4.932,0 -11.817,2.274 -18.417,6.085c-11.483,6.63 -17.352,14.946 -15.436,18.265c0.689,1.193 2.507,1.85 5.119,1.85c4.932,0 11.817,-2.274 18.417,-6.085c11.483,-6.63 17.352,-14.946 15.436,-18.265c-0.689,-1.193 -2.507,-1.85 -5.119,-1.85z"/>
  <path id="svg_15" fill="#00ffff" d="m46.367,48.1c-5.436,0 -12.881,-2.425 -19.917,-6.487c-12.59,-7.268 -19.698,-16.883 -16.533,-22.363c0.882,-1.528 2.937,-3.35 7.717,-3.35c5.436,0 12.881,2.425 19.917,6.487c12.589,7.268 19.697,16.883 16.532,22.363c-0.881,1.528 -2.937,3.35 -7.716,3.35zm-28.734,-29.2c-2.612,0 -4.43,0.656 -5.119,1.85c-1.916,3.318 3.953,11.635 15.436,18.265c6.6,3.811 13.484,6.085 18.417,6.085c2.612,0 4.43,-0.656 5.119,-1.85c1.916,-3.318 -3.953,-11.635 -15.436,-18.265c-6.6,-3.81 -13.485,-6.085 -18.417,-6.085z"/>
  <circle id="svg_17" r="3" fill="#56ffff" cy="32" cx="32"/>
 </g>
</svg>